<svg xmlns="http://www.w3.org/2000/svg" viewBox="0 0 512 512"><path d="M41.837 215.408a15.241 15.241 0 01-13.718-8.615c-.424-.877-10.401-21.802-12.725-49.568-3.102-37.048 8.628-69.138 33.941-92.981a15.242 15.242 0 0115.626-5.571c34.594 8.213 55.802 31.212 56.731 61.524a15.242 15.242 0 01-9.795 14.705c-23.663 9.038-52.026 38.7-54.894 66.812a15.24 15.24 0 01-15.166 13.694z" fill="#36569c"/><path d="M15.243 434.516a15.241 15.241 0 01-15.24-15.24c0-72.951 43.685-126.869 82.227-174.44 27.988-34.545 52.159-64.379 52.159-92.564 0-9.341-1.972-16.276-5.277-18.551-3.156-2.173-9.59-1.731-17.213 1.18a15.24 15.24 0 01-20.673-13.767c-.669-21.821-21.154-29.918-33.305-32.803a15.24 15.24 0 01-11.249-11.07c-4.094-16.091 1.181-32.12 14.853-45.134 23.748-22.603 67.049-30.988 102.96-19.94 36.585 11.258 61.691 40.372 70.692 81.979 18.676 86.336-32.962 158.764-74.455 216.961-15.27 21.418-29.695 41.649-37.676 58.839a15.231 15.231 0 01-6.05 6.691l-93.98 55.727a15.219 15.219 0 01-7.773 2.132z" fill="#ff87b4"/><path d="M137.498 88.997c7.972 0 15.609-7.009 15.24-15.24-.37-8.257-6.696-15.24-15.24-15.24-7.972 0-15.609 7.009-15.24 15.24.371 8.257 6.697 15.24 15.24 15.24z" fill="#36569c"/><path d="M433.831 504.651H78.169C35.067 504.651 0 469.584 0 426.481s35.067-78.169 78.169-78.169h355.662c43.103 0 78.169 35.067 78.169 78.169s-35.066 78.17-78.169 78.17z" fill="#fa649a"/><path d="M433.831 348.312H256.37v156.339h177.461c43.103 0 78.169-35.067 78.169-78.169s-35.066-78.17-78.169-78.17z" fill="#f54286"/></svg>